<svg class="h-full" xmlns="http://www.w3.org/2000/svg" viewBox="0 0 300 150">
  <path
    fill="#3db053"
    d="M119.83 33.41l-31.51 22.5h123.36l-31.51-22.59-60.34.09zM117.04 32.88L85.53 55.39 0 26.63 37.63 4l79.41 28.88zM262.37 4L300 26.63l-85.52 28.76-31.52-22.51L262.37 4zM119.83 123.5L88.32 146h123.36l-31.51-22.59-60.34.09zM117.04 122.97l-31.51 22.5L0 116.71l37.63-22.63 79.41 28.89zM262.37 94.08L300 116.71l-85.52 28.76-31.52-22.5 79.41-28.89zM84.27 78.92h-4.29l-8.71 8.23V72.03h-3.18v24.16h3.18V90.5l4.05-3.61 5.83 9.3h3.58l-7.39-11.11 6.93-6.16zM96.14 72.25h3.19v3.22h-3.19zM96.14 78.92h3.19V96.2h-3.19zM126.66 78.92h-4.29l-8.7 8.23V72.03h-3.19v24.16h3.19V90.5l4.04-3.61 5.83 9.3h3.59l-7.39-11.11 6.92-6.16zM138.34 72.25h3.19v3.22h-3.19zM138.34 78.92h3.19V96.2h-3.19zM158.63 74.73h-3.15v4.43H152v2.57h3.48v10.35a4.28 4.28 0 001.3 3.47 6.76 6.76 0 004.22 1c.63 0 1.42 0 2.36-.14h.21v-2.54l-.29.07a10 10 0 01-1.89.24 3 3 0 01-2-.66 2.35 2.35 0 01-.73-1.85v-9.94h4.94v-2.57h-4.94zM186.54 79.64a9.7 9.7 0 00-4.43-1.06 10.17 10.17 0 00-4.51 1 7.5 7.5 0 00-3.34 3.16 9.71 9.71 0 00-1.19 4.83 8.38 8.38 0 002.7 6.52 9.54 9.54 0 006.6 2.42 8.82 8.82 0 006.16-2.4 8.33 8.33 0 002.62-6.45 9.71 9.71 0 00-1.23-4.82 8 8 0 00-3.38-3.2zm1.4 7.83a6.68 6.68 0 01-1.73 4.94 5.66 5.66 0 01-4.08 1.71 5.77 5.77 0 01-4.13-1.69 6.63 6.63 0 01-1.73-4.92 6.46 6.46 0 011.72-4.83 5.84 5.84 0 014.19-1.68 5.65 5.65 0 014.08 1.64 6.49 6.49 0 011.68 4.83zM212.48 78.56a8.79 8.79 0 00-4.27 1 7.91 7.91 0 00-3.13 3.44v-4.08h-3.19v17.27h3.19v-7.7a7.48 7.48 0 01.57-2.62 7.09 7.09 0 011.58-2.47 6.17 6.17 0 012.3-1.46 6.07 6.07 0 012.31-.41l1.2.06.47-3h-.28zM224.44 72.25h3.19v3.22h-3.19zM224.44 78.92h3.19V96.2h-3.19z"
  ></path>
</svg>
