<svg
  width="100%"
  height="100%"
  viewBox="0 0 623 152"
  version="1.1"
  xmlns="http://www.w3.org/2000/svg"
  style="fill: #3db053"
>
  <path
    d="M129.74,129.74c14.247,-14.247 22.26,-33.591 22.26,-53.74c-0,-41.692 -34.308,-76 -76,-76c-41.692,0 -76,34.308 -76,76c0,41.692 34.308,76 76,76c-0,-0 0,-0 0,-0c20.16,0.056 39.525,-7.965 53.74,-22.26Zm-56.12,-117.34c-13.819,6.435 -23.918,18.905 -27.34,33.76c-0.991,4.316 -1.408,8.744 -1.24,13.17c0.837,22.436 16.825,41.631 38.74,46.51c1.522,-3.57 2.308,-7.41 2.31,-11.29l0,-0.82c-13.741,-3.233 -24.512,-14.008 -27.74,-27.75c-1.637,-6.964 -1.244,-14.252 1.13,-21c5.263,-14.881 19.419,-24.89 35.203,-24.89c20.485,-0 37.34,16.856 37.34,37.34c0,9.907 -3.943,19.419 -10.953,26.42c-1.678,1.685 -3.517,3.202 -5.49,4.53c0.504,4.728 0.43,9.5 -0.22,14.21c10.702,-4.927 19.308,-13.505 24.27,-24.19c-1.236,33.164 -28.213,60.079 -61.38,61.24c5.342,-2.451 10.202,-5.838 14.35,-10c9.32,-9.301 14.556,-21.944 14.54,-35.11l0,-2c-0.118,-3.002 -0.506,-5.988 -1.16,-8.92c-4.199,-18.704 -18.867,-33.376 -37.57,-37.58c-1.631,3.823 -2.416,7.955 -2.3,12.11c13.74,3.249 24.511,14.02 27.76,27.76c0.662,2.815 0.997,5.698 1,8.59l0,0.17c-0.015,7.398 -2.248,14.624 -6.41,20.74c-1.342,1.976 -2.869,3.821 -4.56,5.51c-7.016,7.129 -16.611,11.149 -26.614,11.149c-20.484,-0 -37.34,-16.856 -37.34,-37.34c0,-10.005 4.022,-19.603 11.154,-26.619c1.692,-1.691 3.54,-3.218 5.52,-4.56c-0.502,-4.728 -0.428,-9.5 0.22,-14.21c-10.797,4.959 -19.473,13.621 -24.45,24.41c1.171,-33.152 28.081,-60.109 61.23,-61.34Z"
  />
  <path
    d="M518.519,56.76c-5.78,6.48 -8.72,14.88 -8.72,25l0,38.06l13.37,-0l0,-38.07c0,-6.77 1.72,-12.12 5.1,-15.92c3.38,-3.8 7.88,-5.58 13.83,-5.58l4.93,-0l0,-13.26l-5.05,-0c-9.76,-0 -17.66,3.29 -23.46,9.77Z"
  />
  <path
    d="M230.99,46.99c-9.77,-0 -17.66,3.29 -23.46,9.77c-5.8,6.48 -8.72,14.88 -8.72,25l-0,38.06l13.37,-0l-0,-38.07c-0,-6.77 1.71,-12.12 5.1,-15.92c3.39,-3.8 7.87,-5.58 13.82,-5.58c5.95,-0 10.46,1.82 13.82,5.58c3.36,3.76 5.11,9.16 5.11,15.92l-0,38.06l13.25,-0l-0,-38.06c-0,-10.1 -2.93,-18.51 -8.71,-25c-5.78,-6.49 -13.83,-9.76 -23.58,-9.76Z"
  />
  <path
    d="M609.629,46.99l0,38.06c0,6.77 -1.71,12.12 -5.1,15.92c-3.39,3.8 -7.88,5.58 -13.82,5.58c-5.94,-0 -10.46,-1.82 -13.82,-5.58c-3.36,-3.76 -5.11,-9.15 -5.11,-15.92l0,-38.06l-13.26,-0l0,38.06c0,10.1 2.94,18.51 8.72,25c5.78,6.49 13.83,9.77 23.58,9.77c9.75,-0 17.66,-3.29 23.46,-9.77c5.8,-6.48 8.72,-14.88 8.72,-25l0,-38.06l-13.37,-0Z"
  />
  <path
    d="M383.86,46.99c-9.77,-0 -17.66,3.29 -23.46,9.77c-0.72,0.807 -1.387,1.647 -2,2.52c-0.63,-0.87 -1.31,-1.71 -2,-2.52c-5.89,-6.49 -13.82,-9.77 -23.58,-9.77c-9.76,-0 -17.66,3.29 -23.46,9.77c-5.8,6.48 -8.72,14.88 -8.72,25l-0,38.06l13.37,-0l-0,-38.07c-0,-6.77 1.72,-12.12 5.1,-15.92c3.38,-3.8 7.88,-5.58 13.83,-5.58c5.95,-0 10.46,1.82 13.82,5.58c3,3.4 4.71,8 5,13.81l-0,40.17l13.37,-0l-0,-38.06c-0,-6.77 1.71,-12.12 5.1,-15.92c3.39,-3.8 7.88,-5.58 13.82,-5.58c5.94,-0 10.46,1.82 13.82,5.58c3.36,3.76 5.11,9.16 5.11,15.92l-0,38.06l13.18,-0l-0,-38.06c-0,-10.1 -2.94,-18.51 -8.72,-25c-5.78,-6.49 -13.83,-9.76 -23.58,-9.76Z"
  />
  <path
    d="M487.659,56.33c-6.476,-7 -15.613,-10.953 -25.149,-10.88c-9.64,-0 -18.06,3.66 -25,10.88c-5.519,5.66 -9.032,12.975 -10,20.82l0.23,-0.81l-0.36,1.86l-0,0.48l-0.12,0.82l-0,0.48l0.26,-1.16l-0.36,2l-0,3.42l0.36,2l-0.26,-1l-0,0.82l0.12,0.83l0.36,1.87l-0.26,-1.15l-0,1.12c1.125,7.558 4.629,14.565 10,20c8.715,9.494 22.109,13.249 34.49,9.67l-0,-14.2c-8.365,4.135 -18.527,2.241 -24.84,-4.63c-8.784,-9.523 -8.784,-24.377 -0,-33.9c3.882,-4.494 9.572,-7.032 15.51,-6.92c5.932,-0.049 11.601,2.486 15.52,6.94c4.027,4.235 6.371,9.8 6.589,15.64l0,38.27l13.25,-0l0,-37c0.205,-9.777 -3.522,-19.239 -10.34,-26.25l0,-0.02Z"
  />
  <rect x="275.74" y="24.18" width="13.25" height="13.73" />
  <rect x="275.74" y="47.85" width="13.25" height="71.97" />
</svg>
